# xmcd
#
# Track frame offsets:
#	150
#	11087
#	24708
#	45588
#	50355
#	98589
#	108726
#	119375
#	133423
#	145179
#	159535
#	170054
#
# Disc length: 2512 seconds
#
# Revision: 1
# Processed by: cddbd v1.5.2PL0 Copyright (c) Steve Scherf et al.
# Submitted via: audiograbber 1.80
#
DISCID=a809ce0c
DTITLE=Poutnici - Poutnici
DYEAR=1900
DGENRE=
TTITLE0=Panenka
TTITLE1=Az uslysim hvizdani
TTITLE2=Napsal jsem jmeno svy na zdi
TTITLE3=Telegrafni cesta
TTITLE4=Skotska sukne
TTITLE5=Vsem Krystofum Kolombum
TTITLE6=Navrat
TTITLE7=Vzor 63
TTITLE8=Blues o touze letat
TTITLE9=Jezdci
TTITLE10=Podobenstvi o naramcich
TTITLE11=a o muzkym stesti
EXTD=
EXTT0=
EXTT1=
EXTT2=
EXTT3=
EXTT4=
EXTT5=
EXTT6=
EXTT7=
EXTT8=
EXTT9=
EXTT10=
EXTT11=
PLAYORDER=
